<svg id="svg" version="1.1" width="400" height="400" viewBox="0 0 400 400" xmlns="http://www.w3.org/2000/svg" xmlns:xlink="http://www.w3.org/1999/xlink"><g id="svgg"><path id="path0" d="M182.800 0.600 C 182.800 0.930,182.665 1.204,182.500 1.208 C 179.302 1.296,168.503 2.535,167.078 2.977 C 166.021 3.306,163.360 3.759,161.164 3.985 C 158.968 4.210,156.648 4.665,156.009 4.995 C 155.370 5.326,153.566 5.778,152.000 6.000 C 150.434 6.222,148.662 6.658,148.063 6.968 C 147.463 7.278,146.259 7.653,145.386 7.801 C 143.770 8.077,136.858 10.197,135.392 10.867 C 134.948 11.070,133.238 11.653,131.592 12.163 L 128.600 13.090 130.378 13.581 C 132.860 14.268,267.906 14.219,270.000 13.531 L 271.400 13.071 268.000 11.917 C 266.130 11.282,263.520 10.444,262.200 10.054 C 260.880 9.665,259.440 9.154,259.000 8.919 C 258.560 8.684,257.120 8.261,255.800 7.980 C 254.480 7.699,252.912 7.227,252.317 6.932 C 251.721 6.638,249.838 6.203,248.133 5.965 C 246.428 5.728,244.514 5.266,243.879 4.938 C 243.245 4.610,241.038 4.168,238.976 3.957 C 236.914 3.746,234.467 3.306,233.539 2.978 C 232.295 2.540,220.159 1.229,217.100 1.203 C 216.935 1.201,216.800 0.930,216.800 0.600 C 216.800 0.076,214.644 0.000,199.800 0.000 C 184.956 0.000,182.800 0.076,182.800 0.600 M89.535 33.594 C 78.081 41.309,76.221 42.799,77.191 43.479 C 78.210 44.192,194.604 44.261,195.462 43.548 C 195.758 43.303,196.000 42.533,196.000 41.838 C 196.000 41.143,196.275 39.590,196.611 38.387 C 197.851 33.947,198.196 31.318,197.627 30.632 C 197.153 30.062,192.093 30.000,145.986 30.000 L 94.871 30.000 89.535 33.594 M202.437 30.555 C 202.093 30.970,202.089 31.553,202.422 32.855 C 203.577 37.368,203.984 39.545,203.992 41.251 C 203.996 42.281,204.233 43.295,204.525 43.538 C 204.898 43.847,222.050 43.985,263.697 44.016 C 319.322 44.056,324.000 43.980,324.000 43.041 C 324.000 42.896,318.917 39.060,317.056 37.800 C 314.953 36.376,312.972 35.050,309.149 32.504 L 305.400 30.008 254.149 30.004 C 210.903 30.001,202.826 30.087,202.437 30.555 M123.070 60.000 L 57.139 60.200 54.566 63.000 C 47.233 70.978,45.552 73.146,46.364 73.581 C 47.416 74.144,185.318 74.179,186.369 73.617 C 187.140 73.204,188.000 71.256,188.000 69.922 C 188.000 69.505,188.450 68.318,189.000 67.285 C 189.550 66.252,190.008 65.045,190.018 64.603 C 190.027 64.161,190.278 63.120,190.575 62.288 C 191.523 59.631,195.896 59.779,123.070 60.000 M274.400 59.995 C 239.090 60.108,209.991 60.336,209.735 60.502 C 209.248 60.818,209.339 61.296,210.593 65.000 C 210.965 66.100,211.614 68.166,212.035 69.591 C 212.456 71.016,213.208 72.590,213.707 73.089 L 214.614 73.996 283.989 74.002 C 343.191 74.008,353.446 73.926,353.928 73.444 C 354.414 72.958,353.997 72.304,350.930 68.740 C 343.471 60.071,343.611 60.181,339.600 59.868 C 339.050 59.825,309.710 59.882,274.400 59.995 M32.531 90.500 C 31.889 91.513,30.826 93.434,30.245 94.632 C 29.915 95.309,29.377 96.087,29.049 96.359 C 28.720 96.632,28.338 97.370,28.200 98.000 C 28.062 98.630,27.662 99.382,27.312 99.672 C 26.238 100.564,25.483 102.777,26.029 103.435 C 26.833 104.403,171.639 104.270,172.491 103.300 C 172.830 102.915,173.497 101.880,173.973 101.000 C 179.131 91.471,179.296 91.090,178.512 90.500 C 177.536 89.766,32.995 89.766,32.531 90.500 M221.921 90.420 C 221.228 90.825,221.736 93.311,222.768 94.565 C 223.174 95.058,225.305 98.984,226.497 101.432 C 226.933 102.330,227.638 103.281,228.063 103.547 C 229.094 104.190,373.463 104.212,374.238 103.568 C 374.885 103.032,374.262 101.071,372.936 99.469 C 372.421 98.847,372.000 98.096,372.000 97.800 C 372.000 97.504,371.595 96.752,371.100 96.129 C 370.143 94.925,369.421 93.743,368.458 91.800 C 368.130 91.140,367.669 90.468,367.431 90.306 C 366.750 89.842,222.719 89.955,221.921 90.420 M16.522 120.500 C 16.315 120.775,15.948 121.630,15.706 122.400 C 15.464 123.170,14.694 125.240,13.994 127.000 C 11.490 133.295,11.581 132.933,12.328 133.600 C 13.508 134.653,151.142 134.095,151.756 133.034 C 152.000 132.613,153.406 130.813,154.880 129.034 C 156.353 127.256,158.063 125.185,158.680 124.434 C 160.231 122.542,160.848 121.008,160.283 120.443 C 159.600 119.760,17.036 119.817,16.522 120.500 M240.022 120.573 C 239.402 121.321,239.745 121.952,243.041 126.128 C 248.563 133.121,248.941 133.528,250.130 133.766 C 252.972 134.334,387.489 134.016,387.967 133.440 C 388.560 132.726,387.809 129.436,386.736 128.046 C 386.331 127.521,386.000 126.747,386.000 126.326 C 386.000 125.905,385.688 124.984,385.307 124.280 C 384.925 123.576,384.425 122.370,384.194 121.600 L 383.774 120.200 312.137 120.099 C 250.215 120.012,240.435 120.076,240.022 120.573 M64.839 149.901 C 25.338 149.971,6.919 150.135,6.574 150.421 C 6.297 150.652,5.946 151.776,5.794 152.920 C 5.642 154.064,5.177 156.029,4.759 157.287 C 3.804 160.166,3.740 163.415,4.633 163.757 C 4.981 163.891,30.408 164.000,61.138 164.000 L 117.011 164.000 119.005 162.612 C 120.102 161.849,121.720 160.681,122.600 160.017 C 123.480 159.353,124.740 158.449,125.399 158.009 C 126.059 157.568,127.409 156.488,128.399 155.608 C 129.390 154.728,130.974 153.346,131.921 152.539 C 134.543 150.300,133.780 149.829,127.498 149.813 C 124.804 149.806,96.608 149.846,64.839 149.901 M271.318 150.000 C 266.654 150.253,266.250 150.618,268.485 152.556 C 274.269 157.572,275.907 158.944,276.800 159.525 C 277.350 159.883,278.952 161.037,280.360 162.088 L 282.919 164.000 339.211 164.000 C 387.845 164.000,395.567 163.921,395.982 163.421 C 396.584 162.696,396.199 159.100,395.187 156.000 C 394.792 154.790,394.359 153.143,394.224 152.340 C 394.089 151.537,393.745 150.686,393.459 150.449 C 392.923 150.004,278.954 149.585,271.318 150.000 M1.463 180.400 C -0.001 181.002,-0.604 182.400,0.600 182.400 C 0.930 182.400,1.200 182.670,1.200 183.000 C 1.200 183.330,0.930 183.600,0.600 183.600 C 0.097 183.600,0.000 184.444,0.000 188.800 L 0.000 194.000 28.412 194.000 L 56.824 194.000 59.200 193.000 C 60.507 192.450,61.991 192.000,62.499 192.000 C 63.007 192.000,63.782 191.748,64.223 191.439 C 64.663 191.131,66.368 190.400,68.012 189.814 C 74.463 187.517,75.162 187.244,76.065 186.671 C 76.579 186.345,77.573 185.959,78.272 185.814 C 78.972 185.668,79.759 185.290,80.021 184.974 C 80.283 184.658,80.704 184.400,80.955 184.400 C 81.206 184.400,82.489 183.894,83.806 183.276 C 85.123 182.658,86.825 181.876,87.589 181.538 L 88.979 180.924 88.007 180.404 C 86.446 179.568,3.494 179.564,1.463 180.400 M313.683 180.036 C 310.798 180.627,310.674 180.533,320.200 184.979 C 323.023 186.297,325.828 187.449,328.500 188.390 C 333.760 190.242,335.394 190.890,336.165 191.430 C 336.612 191.744,337.393 192.000,337.901 192.000 C 338.409 192.000,339.893 192.450,341.200 193.000 L 343.576 194.000 371.788 194.000 L 400.000 194.000 400.000 187.225 L 400.000 180.449 398.300 180.213 C 396.053 179.900,315.171 179.731,313.683 180.036 M1.435 210.140 L -0.000 210.479 -0.000 214.040 C -0.000 216.804,0.124 217.600,0.553 217.600 C 1.217 217.600,1.587 218.818,1.595 221.024 C 1.606 224.306,-2.752 224.025,46.280 223.906 C 93.549 223.791,92.728 223.834,88.317 221.720 C 83.060 219.202,80.442 218.000,80.212 218.000 C 80.080 218.000,77.880 217.100,75.322 216.000 C 72.764 214.900,70.475 213.994,70.235 213.987 C 69.996 213.981,68.900 213.532,67.800 212.991 C 66.700 212.450,65.581 212.006,65.312 212.004 C 65.044 212.002,64.080 211.612,63.169 211.137 C 61.904 210.478,60.604 210.236,57.657 210.113 C 49.870 209.788,2.826 209.811,1.435 210.140 M338.000 210.830 C 336.790 211.272,335.260 211.802,334.600 212.009 C 333.940 212.215,332.687 212.747,331.815 213.192 C 330.944 213.636,329.980 214.000,329.674 214.000 C 328.825 214.000,320.445 217.650,313.061 221.235 C 307.099 224.131,305.152 224.000,354.248 224.000 C 403.066 224.000,398.800 224.309,398.800 220.771 C 398.800 219.286,398.948 218.800,399.400 218.800 C 399.897 218.800,400.000 218.044,400.000 214.400 L 400.000 210.000 370.100 210.013 C 341.166 210.026,340.129 210.052,338.000 210.830 M58.148 239.901 C -1.976 240.017,3.869 239.585,5.175 243.813 C 5.629 245.282,6.000 247.073,6.000 247.792 C 6.000 249.397,6.993 252.309,7.873 253.280 C 8.721 254.218,133.266 254.425,134.544 253.491 C 135.369 252.887,132.150 249.342,129.737 248.197 C 129.008 247.851,128.233 247.235,128.016 246.829 C 127.798 246.423,127.031 245.712,126.310 245.248 C 125.042 244.432,122.383 242.402,120.466 240.787 C 119.149 239.677,125.779 239.772,58.148 239.901 M279.569 241.177 C 278.596 241.824,276.090 243.717,274.000 245.384 C 264.724 252.780,264.793 252.713,265.805 253.453 C 266.806 254.185,390.552 254.278,392.154 253.548 C 393.149 253.095,393.519 252.062,394.212 247.800 C 394.355 246.920,394.841 245.078,395.290 243.706 C 396.641 239.590,402.953 240.000,338.220 240.000 L 281.337 240.000 279.569 241.177 M14.119 270.201 C 13.155 270.877,13.603 273.059,15.268 275.800 C 15.669 276.460,15.998 277.467,15.999 278.038 C 15.999 278.609,16.350 279.393,16.777 279.779 C 17.205 280.166,17.676 281.049,17.824 281.741 C 17.971 282.434,18.274 283.225,18.495 283.500 C 19.109 284.262,160.732 284.231,161.774 283.468 C 162.657 282.822,162.351 282.110,160.190 279.784 C 159.381 278.913,158.429 277.750,158.074 277.200 C 156.458 274.697,152.610 270.308,151.742 269.978 C 149.893 269.275,15.129 269.494,14.119 270.201 M247.062 271.320 C 245.196 273.163,239.092 280.707,238.359 282.077 C 237.285 284.083,234.192 284.000,310.103 284.000 C 385.029 284.000,382.400 284.071,382.400 282.048 C 382.400 281.430,382.760 280.598,383.200 280.200 C 383.640 279.802,384.000 279.187,384.000 278.835 C 384.000 278.482,384.450 277.348,385.000 276.315 C 385.550 275.282,386.001 274.113,386.002 273.718 C 386.004 273.323,386.264 272.503,386.581 271.895 C 387.830 269.502,392.015 269.638,317.081 269.639 L 248.763 269.641 247.062 271.320 M28.203 300.400 C 27.627 301.041,28.226 303.198,29.138 303.762 C 29.367 303.903,30.287 305.347,31.183 306.969 C 32.078 308.591,33.063 310.015,33.370 310.133 C 33.678 310.251,34.156 310.975,34.433 311.741 C 35.295 314.124,31.274 314.000,107.845 314.000 C 181.494 314.000,180.536 314.022,180.096 312.305 C 179.871 311.431,174.214 300.918,173.630 300.291 C 173.018 299.634,28.796 299.741,28.203 300.400 M228.810 300.000 L 226.620 300.200 225.010 303.039 C 224.124 304.601,223.201 306.131,222.958 306.439 C 222.715 306.748,222.308 307.618,222.053 308.374 C 221.798 309.130,221.305 310.063,220.957 310.448 C 220.609 310.832,220.296 311.744,220.262 312.474 L 220.200 313.800 291.924 313.901 C 369.053 314.010,364.852 314.130,365.828 311.795 C 366.136 311.058,366.573 310.340,366.799 310.201 C 367.260 309.916,370.000 305.733,370.000 305.314 C 370.000 305.165,370.427 304.584,370.948 304.022 C 372.163 302.713,372.576 301.044,371.837 300.431 C 371.274 299.963,233.747 299.549,228.810 300.000 M49.873 330.422 C 49.131 331.023,49.172 331.119,51.052 333.223 C 55.795 338.527,60.301 342.944,61.487 343.450 C 63.336 344.240,190.874 344.275,191.528 343.486 C 192.118 342.775,190.813 338.090,188.455 332.452 L 187.389 329.904 119.015 329.852 C 57.697 329.805,50.562 329.864,49.873 330.422 M213.222 330.071 C 212.558 330.316,212.226 331.060,210.489 336.200 C 210.266 336.860,209.778 338.300,209.404 339.400 C 208.211 342.912,208.190 343.533,209.257 343.792 C 209.776 343.918,239.190 343.972,274.623 343.911 L 339.047 343.800 343.242 339.600 C 345.549 337.290,348.295 334.377,349.344 333.128 L 351.250 330.855 350.335 330.365 C 349.334 329.829,214.657 329.540,213.222 330.071 M83.765 359.986 C 80.884 360.654,80.869 360.638,90.000 366.680 C 92.750 368.499,95.614 370.441,96.364 370.994 C 97.115 371.547,97.977 372.000,98.281 372.000 C 98.584 372.000,99.380 372.405,100.050 372.900 L 101.267 373.800 149.381 373.905 C 188.017 373.989,197.578 373.909,197.918 373.499 C 198.500 372.798,197.859 365.845,197.035 363.913 C 196.686 363.095,196.400 362.088,196.400 361.675 C 196.400 359.457,199.845 359.581,139.961 359.643 C 109.732 359.674,84.444 359.828,83.765 359.986 M204.500 360.083 C 204.266 360.368,203.883 361.636,203.650 362.901 C 203.417 364.167,203.024 365.581,202.777 366.043 C 202.133 367.246,201.626 372.886,202.106 373.500 C 202.416 373.895,212.542 374.000,250.349 373.998 L 298.200 373.996 300.600 372.688 C 304.279 370.683,307.282 368.790,314.379 364.000 C 315.194 363.450,316.534 362.570,317.356 362.045 C 319.036 360.973,318.876 360.513,316.647 360.011 C 314.011 359.416,204.991 359.487,204.500 360.083 M143.386 389.968 C 140.423 390.690,140.514 391.066,143.837 391.823 C 145.577 392.219,147.488 392.782,148.083 393.073 C 148.679 393.365,150.562 393.797,152.267 394.035 C 153.972 394.272,155.863 394.722,156.469 395.036 C 157.075 395.349,159.373 395.791,161.574 396.017 C 163.776 396.242,166.347 396.703,167.288 397.039 C 168.594 397.506,179.678 398.735,183.100 398.792 C 183.375 398.796,183.600 399.070,183.600 399.400 C 183.600 399.924,185.689 400.000,200.000 400.000 C 214.311 400.000,216.400 399.924,216.400 399.400 C 216.400 399.070,216.625 398.796,216.900 398.792 C 220.156 398.737,231.476 397.498,233.037 397.024 C 234.157 396.685,236.707 396.238,238.703 396.031 C 240.699 395.825,242.850 395.388,243.483 395.061 C 244.115 394.733,246.028 394.272,247.733 394.035 C 249.438 393.797,251.328 393.347,251.934 393.034 C 252.539 392.721,254.196 392.255,255.616 391.997 C 259.077 391.369,259.604 391.054,258.364 390.348 C 257.298 389.742,145.828 389.374,143.386 389.968 " stroke="none" fill="#28306d" fill-rule="evenodd"></path><path id="path1" d="M0.000 90.400 C 0.000 154.118,0.126 180.800,0.426 180.800 C 0.661 180.800,1.207 180.610,1.641 180.378 C 2.908 179.700,86.738 179.725,88.006 180.403 L 88.979 180.924 87.589 181.538 C 86.825 181.876,85.123 182.658,83.806 183.276 C 82.489 183.894,81.206 184.400,80.955 184.400 C 80.704 184.400,80.283 184.658,80.021 184.974 C 79.759 185.290,78.972 185.668,78.272 185.814 C 77.573 185.959,76.579 186.345,76.065 186.671 C 75.162 187.244,74.463 187.517,68.012 189.814 C 66.368 190.400,64.663 191.131,64.223 191.439 C 63.782 191.748,63.007 192.000,62.499 192.000 C 61.991 192.000,60.507 192.450,59.200 193.000 L 56.824 194.000 28.412 194.000 L 0.000 194.000 0.000 202.243 L 0.000 210.487 1.040 210.226 C 2.809 209.782,59.032 209.959,61.066 210.415 C 62.076 210.641,63.279 211.090,63.740 211.413 C 64.201 211.736,64.853 212.002,65.189 212.004 C 65.525 212.006,66.700 212.450,67.800 212.991 C 68.900 213.532,69.996 213.981,70.235 213.987 C 70.475 213.994,72.764 214.900,75.322 216.000 C 77.880 217.100,80.080 218.000,80.212 218.000 C 80.442 218.000,83.060 219.202,88.317 221.720 C 92.728 223.834,93.549 223.791,46.280 223.906 C -2.752 224.025,1.606 224.306,1.595 221.024 C 1.587 218.818,1.217 217.600,0.553 217.600 C 0.084 217.600,0.000 231.417,0.000 308.800 L 0.000 400.000 91.800 400.000 C 173.133 400.000,183.600 399.932,183.600 399.400 C 183.600 399.070,183.375 398.796,183.100 398.792 C 179.678 398.735,168.594 397.506,167.288 397.039 C 166.347 396.703,163.776 396.242,161.574 396.017 C 159.373 395.791,157.075 395.349,156.469 395.036 C 155.863 394.722,153.972 394.272,152.267 394.035 C 150.562 393.797,148.679 393.365,148.083 393.073 C 147.488 392.782,145.573 392.218,143.828 391.821 L 140.656 391.098 141.828 390.449 C 143.468 389.541,256.773 389.443,258.364 390.348 C 259.604 391.054,259.077 391.369,255.616 391.997 C 254.196 392.255,252.539 392.721,251.934 393.034 C 251.328 393.347,249.438 393.797,247.733 394.035 C 246.028 394.272,244.115 394.733,243.483 395.061 C 242.850 395.388,240.699 395.825,238.703 396.031 C 236.707 396.238,234.157 396.685,233.037 397.024 C 231.476 397.498,220.156 398.737,216.900 398.792 C 216.625 398.796,216.400 399.070,216.400 399.400 C 216.400 399.932,226.867 400.000,308.200 400.000 L 400.000 400.000 400.000 309.400 C 400.000 229.133,399.932 218.800,399.400 218.800 C 398.948 218.800,398.800 219.286,398.800 220.771 C 398.800 224.309,403.066 224.000,354.248 224.000 C 305.152 224.000,307.099 224.131,313.061 221.235 C 320.445 217.650,328.825 214.000,329.674 214.000 C 329.980 214.000,330.944 213.636,331.815 213.192 C 332.687 212.747,333.940 212.215,334.600 212.009 C 335.260 211.802,336.790 211.272,338.000 210.830 C 340.129 210.052,341.166 210.026,370.100 210.013 L 400.000 210.000 400.000 202.000 L 400.000 194.000 371.788 194.000 L 343.576 194.000 341.200 193.000 C 339.893 192.450,338.409 192.000,337.901 192.000 C 337.393 192.000,336.612 191.744,336.165 191.430 C 335.394 190.890,333.760 190.242,328.500 188.390 C 325.828 187.449,323.023 186.297,320.200 184.979 C 310.961 180.667,311.410 180.930,312.389 180.406 C 313.350 179.892,395.973 179.740,398.700 180.247 L 400.000 180.489 400.000 90.245 L 400.000 0.000 308.400 0.000 C 227.244 0.000,216.800 0.068,216.800 0.600 C 216.800 0.930,216.935 1.201,217.100 1.203 C 220.159 1.229,232.295 2.540,233.539 2.978 C 234.467 3.306,236.914 3.746,238.976 3.957 C 241.038 4.168,243.245 4.610,243.879 4.938 C 244.514 5.266,246.428 5.728,248.133 5.965 C 249.838 6.203,251.721 6.638,252.317 6.932 C 252.912 7.227,254.480 7.699,255.800 7.980 C 257.120 8.261,258.560 8.684,259.000 8.919 C 259.440 9.154,260.880 9.665,262.200 10.054 C 263.520 10.444,266.130 11.282,268.000 11.917 L 271.400 13.071 270.000 13.531 C 267.906 14.219,132.860 14.268,130.378 13.581 L 128.600 13.090 131.592 12.163 C 133.238 11.653,134.948 11.070,135.392 10.867 C 136.858 10.197,143.770 8.077,145.386 7.801 C 146.259 7.653,147.463 7.278,148.063 6.968 C 148.662 6.658,150.434 6.222,152.000 6.000 C 153.566 5.778,155.370 5.326,156.009 4.995 C 156.648 4.665,158.968 4.210,161.164 3.985 C 163.360 3.759,166.021 3.306,167.078 2.977 C 168.503 2.535,179.302 1.296,182.500 1.208 C 182.665 1.204,182.800 0.930,182.800 0.600 C 182.800 0.068,172.378 0.000,91.400 0.000 L 0.000 0.000 0.000 90.400 M197.627 30.632 C 198.196 31.318,197.851 33.947,196.611 38.387 C 196.275 39.590,196.000 41.143,196.000 41.838 C 196.000 42.533,195.758 43.303,195.462 43.548 C 194.604 44.261,78.210 44.192,77.191 43.479 C 76.221 42.799,78.081 41.309,89.535 33.594 L 94.871 30.000 145.986 30.000 C 192.093 30.000,197.153 30.062,197.627 30.632 M309.149 32.504 C 312.972 35.050,314.953 36.376,317.056 37.800 C 318.917 39.060,324.000 42.896,324.000 43.041 C 324.000 43.980,319.322 44.056,263.697 44.016 C 222.050 43.985,204.898 43.847,204.525 43.538 C 204.233 43.295,203.996 42.281,203.992 41.251 C 203.984 39.545,203.577 37.368,202.422 32.855 C 201.627 29.746,197.031 30.000,254.149 30.004 L 305.400 30.008 309.149 32.504 M190.575 62.288 C 190.278 63.120,190.027 64.161,190.018 64.603 C 190.008 65.045,189.550 66.252,189.000 67.285 C 188.450 68.318,188.000 69.505,188.000 69.922 C 188.000 71.256,187.140 73.204,186.369 73.617 C 185.318 74.179,47.416 74.144,46.364 73.581 C 45.552 73.146,47.233 70.978,54.566 63.000 L 57.139 60.200 123.070 60.000 C 195.896 59.779,191.523 59.631,190.575 62.288 M342.048 60.181 C 343.630 60.439,344.548 61.323,350.930 68.740 C 353.997 72.304,354.414 72.958,353.928 73.444 C 353.446 73.926,343.191 74.008,283.989 74.002 L 214.614 73.996 213.707 73.089 C 213.208 72.590,212.456 71.016,212.035 69.591 C 211.614 68.166,210.965 66.100,210.593 65.000 C 209.339 61.296,209.248 60.818,209.735 60.502 C 210.124 60.249,336.577 59.632,339.600 59.868 C 340.150 59.911,341.252 60.052,342.048 60.181 M178.512 90.500 C 179.249 91.055,179.036 91.595,175.484 98.200 C 173.447 101.989,173.051 102.664,172.491 103.300 C 171.639 104.270,26.833 104.403,26.029 103.435 C 25.483 102.777,26.238 100.564,27.312 99.672 C 27.662 99.382,28.062 98.630,28.200 98.000 C 28.338 97.370,28.720 96.632,29.049 96.359 C 29.377 96.087,29.915 95.309,30.245 94.632 C 30.826 93.434,31.889 91.513,32.531 90.500 C 32.782 90.103,47.783 90.000,105.347 90.000 C 162.726 90.000,177.986 90.104,178.512 90.500 M367.431 90.306 C 367.669 90.468,368.130 91.140,368.458 91.800 C 369.421 93.743,370.143 94.925,371.100 96.129 C 371.595 96.752,372.000 97.504,372.000 97.800 C 372.000 98.096,372.421 98.847,372.936 99.469 C 374.262 101.071,374.885 103.032,374.238 103.568 C 373.463 104.212,229.094 104.190,228.063 103.547 C 227.638 103.281,226.933 102.330,226.497 101.432 C 225.305 98.984,223.174 95.058,222.768 94.565 C 221.736 93.311,221.228 90.825,221.921 90.420 C 222.719 89.955,366.750 89.842,367.431 90.306 M160.283 120.443 C 160.848 121.008,160.231 122.542,158.680 124.434 C 158.063 125.185,156.353 127.256,154.880 129.034 C 153.406 130.813,152.000 132.613,151.756 133.034 C 151.142 134.095,13.508 134.653,12.328 133.600 C 11.581 132.933,11.490 133.295,13.994 127.000 C 14.694 125.240,15.464 123.170,15.706 122.400 C 15.948 121.630,16.315 120.775,16.522 120.500 C 17.036 119.817,159.600 119.760,160.283 120.443 M384.194 121.600 C 384.425 122.370,384.925 123.576,385.307 124.280 C 385.688 124.984,386.000 125.905,386.000 126.326 C 386.000 126.747,386.331 127.521,386.736 128.046 C 387.809 129.436,388.560 132.726,387.967 133.440 C 387.489 134.016,252.972 134.334,250.130 133.766 C 248.941 133.528,248.563 133.121,243.041 126.128 C 239.745 121.952,239.402 121.321,240.022 120.573 C 240.435 120.076,250.215 120.012,312.137 120.099 L 383.774 120.200 384.194 121.600 M133.019 150.448 C 133.582 151.010,133.477 151.210,131.921 152.539 C 130.974 153.346,129.390 154.728,128.399 155.608 C 127.409 156.488,126.059 157.568,125.399 158.009 C 124.740 158.449,123.480 159.353,122.600 160.017 C 121.720 160.681,120.102 161.849,119.005 162.612 L 117.011 164.000 61.138 164.000 C 30.408 164.000,4.981 163.891,4.633 163.757 C 3.740 163.415,3.804 160.166,4.759 157.287 C 5.177 156.029,5.642 154.064,5.794 152.920 C 5.946 151.776,6.297 150.652,6.574 150.421 C 6.984 150.081,83.214 149.697,127.498 149.813 C 131.384 149.823,132.526 149.954,133.019 150.448 M393.459 150.449 C 393.745 150.686,394.089 151.537,394.224 152.340 C 394.359 153.143,394.792 154.790,395.187 156.000 C 396.199 159.100,396.584 162.696,395.982 163.421 C 395.567 163.921,387.845 164.000,339.211 164.000 L 282.919 164.000 280.360 162.088 C 278.952 161.037,277.350 159.883,276.800 159.525 C 275.907 158.944,274.269 157.572,268.485 152.556 C 266.250 150.618,266.654 150.253,271.318 150.000 C 278.954 149.585,392.923 150.004,393.459 150.449 M0.000 183.000 C 0.000 183.330,0.270 183.600,0.600 183.600 C 0.930 183.600,1.200 183.330,1.200 183.000 C 1.200 182.670,0.930 182.400,0.600 182.400 C 0.270 182.400,0.000 182.670,0.000 183.000 M117.866 239.925 C 118.849 239.969,119.915 240.323,120.466 240.787 C 122.383 242.402,125.042 244.432,126.310 245.248 C 127.031 245.712,127.798 246.423,128.016 246.829 C 128.233 247.235,129.008 247.851,129.737 248.197 C 132.150 249.342,135.369 252.887,134.544 253.491 C 133.266 254.425,8.721 254.218,7.873 253.280 C 6.993 252.309,6.000 249.397,6.000 247.792 C 6.000 247.073,5.629 245.282,5.175 243.813 C 4.531 241.729,4.454 241.017,4.823 240.573 C 5.280 240.022,107.028 239.440,117.866 239.925 M395.605 240.606 C 396.014 241.099,395.956 241.678,395.290 243.706 C 394.841 245.078,394.355 246.920,394.212 247.800 C 393.519 252.062,393.149 253.095,392.154 253.548 C 390.552 254.278,266.806 254.185,265.805 253.453 C 264.793 252.713,264.724 252.780,274.000 245.384 C 276.090 243.717,278.596 241.824,279.569 241.177 L 281.337 240.000 338.220 240.000 C 388.557 240.000,395.160 240.070,395.605 240.606 M151.742 269.978 C 152.610 270.308,156.458 274.697,158.074 277.200 C 158.429 277.750,159.381 278.913,160.190 279.784 C 162.351 282.110,162.657 282.822,161.774 283.468 C 160.732 284.231,19.109 284.262,18.495 283.500 C 18.274 283.225,17.971 282.434,17.824 281.741 C 17.676 281.049,17.205 280.166,16.777 279.779 C 16.350 279.393,15.999 278.609,15.999 278.038 C 15.998 277.467,15.669 276.460,15.268 275.800 C 13.603 273.059,13.155 270.877,14.119 270.201 C 15.129 269.494,149.893 269.275,151.742 269.978 M386.278 270.214 C 387.094 270.749,387.116 270.871,386.581 271.895 C 386.264 272.503,386.004 273.323,386.002 273.718 C 386.001 274.113,385.550 275.282,385.000 276.315 C 384.450 277.348,384.000 278.482,384.000 278.835 C 384.000 279.187,383.640 279.802,383.200 280.200 C 382.760 280.598,382.400 281.430,382.400 282.048 C 382.400 284.071,385.029 284.000,310.103 284.000 C 234.192 284.000,237.285 284.083,238.359 282.077 C 239.092 280.707,245.196 273.163,247.062 271.320 L 248.763 269.641 317.081 269.639 C 375.893 269.638,385.520 269.718,386.278 270.214 M173.630 300.291 C 174.214 300.918,179.871 311.431,180.096 312.305 C 180.536 314.022,181.494 314.000,107.845 314.000 C 31.274 314.000,35.295 314.124,34.433 311.741 C 34.156 310.975,33.678 310.251,33.370 310.133 C 33.063 310.015,32.078 308.591,31.183 306.969 C 30.287 305.347,29.367 303.903,29.138 303.762 C 28.226 303.198,27.627 301.041,28.203 300.400 C 28.796 299.741,173.018 299.634,173.630 300.291 M371.837 300.431 C 372.576 301.044,372.163 302.713,370.948 304.022 C 370.427 304.584,370.000 305.165,370.000 305.314 C 370.000 305.733,367.260 309.916,366.799 310.201 C 366.573 310.340,366.136 311.058,365.828 311.795 C 364.852 314.130,369.053 314.010,291.924 313.901 L 220.200 313.800 220.262 312.474 C 220.296 311.744,220.609 310.832,220.957 310.448 C 221.305 310.063,221.798 309.130,222.053 308.374 C 222.308 307.618,222.715 306.748,222.958 306.439 C 223.201 306.131,224.124 304.601,225.010 303.039 L 226.620 300.200 228.810 300.000 C 233.747 299.549,371.274 299.963,371.837 300.431 M188.455 332.452 C 190.813 338.090,192.118 342.775,191.528 343.486 C 190.874 344.275,63.336 344.240,61.487 343.450 C 60.301 342.944,55.795 338.527,51.052 333.223 C 47.689 329.462,41.013 329.793,119.015 329.852 L 187.389 329.904 188.455 332.452 M350.335 330.365 L 351.250 330.855 349.344 333.128 C 348.295 334.377,345.549 337.290,343.242 339.600 L 339.047 343.800 274.623 343.911 C 239.190 343.972,209.776 343.918,209.257 343.792 C 208.190 343.533,208.211 342.912,209.404 339.400 C 209.778 338.300,210.266 336.860,210.489 336.200 C 212.226 331.060,212.558 330.316,213.222 330.071 C 214.657 329.540,349.334 329.829,350.335 330.365 M195.661 360.255 C 196.067 360.623,196.400 361.262,196.400 361.675 C 196.400 362.088,196.686 363.095,197.035 363.913 C 197.859 365.845,198.500 372.798,197.918 373.499 C 197.578 373.909,188.017 373.989,149.381 373.905 L 101.267 373.800 100.050 372.900 C 99.380 372.405,98.584 372.000,98.281 372.000 C 97.977 372.000,97.115 371.547,96.364 370.994 C 95.614 370.441,92.750 368.499,90.000 366.680 C 80.869 360.638,80.884 360.654,83.765 359.986 C 86.772 359.288,194.879 359.548,195.661 360.255 M316.647 360.011 C 318.876 360.513,319.036 360.973,317.356 362.045 C 316.534 362.570,315.194 363.450,314.379 364.000 C 307.282 368.790,304.279 370.683,300.600 372.688 L 298.200 373.996 250.349 373.998 C 212.542 374.000,202.416 373.895,202.106 373.500 C 201.626 372.886,202.133 367.246,202.777 366.043 C 203.024 365.581,203.417 364.167,203.650 362.901 C 203.883 361.636,204.266 360.368,204.500 360.083 C 204.991 359.487,314.011 359.416,316.647 360.011 " stroke="none" fill="#f9fafb" fill-rule="evenodd"></path></g></svg>